Coordinates
version=1
nRows=17
nColumns=36
inDegrees=yes

Units are S.I. units (second, meters, Newtons, ...)
If the header above contains a line with 'inDegrees', this indicates whether rotational values are in degrees (yes) or radians (no).

endheader
time	pelvis_tilt	pelvis_list	pelvis_rotation	pelvis_tx	pelvis_ty	pelvis_tz	hip_flexion_r	hip_adduction_r	hip_rotation_r	knee_angle_r	knee_angle_r_beta	ankle_angle_r	subtalar_angle_r	mtp_angle_r	hip_flexion_l	hip_adduction_l	hip_rotation_l	knee_angle_l	knee_angle_l_beta	ankle_angle_l	subtalar_angle_l	mtp_angle_l	lumbar_extension	lumbar_bending	lumbar_rotation	arm_flex_r	arm_add_r	arm_rot_r	elbow_flex_r	pro_sup_r	arm_flex_l	arm_add_l	arm_rot_l	elbow_flex_l	pro_sup_l
      0.00000000	     10.69510018	     -2.11090542	      0.35547346	     -0.66029842	      0.69300401	     -0.62127489	     77.13591215	    -13.06072421	      4.44144468	     92.25848377	      1.61021430	      7.29463683	     -2.38768905	     -4.59131421	     79.44221652	    -19.36085366	      7.04805528	     94.09935838	      1.64234363	      8.03230543	      5.56616914	     -4.59131421	    -27.28206633	      0.99421220	      2.87477336	     12.74549406	    -14.04166645	     21.20610301	    110.90783564	    113.20072912	     16.32537621	    -15.34960137	     28.56238472	    111.52325481	    108.14211963
      0.01000000	     10.46483791	     -2.18375182	      0.33048476	     -0.66089060	      0.69305935	     -0.62112563	     77.32178444	    -12.98763582	      4.33897022	     92.13719201	      1.60809736	      7.25405903	     -2.42097650	     -4.75770081	     79.69305535	    -19.36891035	      7.11715222	     94.00725614	      1.64073614	      7.99286953	      5.51498078	     -4.75770081	    -27.51734704	      1.00982290	      3.01526178	     14.19764515	    -14.22284888	     21.18901337	    110.73326169	    113.10566526	     17.81564274	    -15.31952714	     28.63538721	    111.23250811	    107.88611567
      0.02000000	     10.15855867	     -2.26137556	      0.26716338	     -0.66135798	      0.69306800	     -0.62080327	     77.57638175	    -12.84632503	      4.26554052	     91.99630158	      1.60563836	      7.20546279	     -2.49224219	     -5.09734379	     80.00911781	    -19.44611147	      7.19085596	     93.90665475	      1.63898031	      8.10463481	      5.72285982	     -5.09734379	    -27.68863312	      0.98582887	      3.18059151	     15.67743181	    -14.39040957	     21.19000638	    110.51375714	    113.17451215	     19.35077683	    -15.35389779	     28.82999019	    111.02578486	    106.84428466
      0.03000000	      9.81519899	     -2.26839903	      0.21745728	     -0.66174733	      0.69305451	     -0.62053026	     77.88845830	    -12.78245030	      4.23759904	     91.83639543	      1.60284747	      7.12517851	     -2.53146152	     -5.37230868	     80.34650149	    -19.49540183	      7.16185618	     93.83244184	      1.63768506	      8.14392679	      5.80294668	     -5.37230868	    -27.86992832	      0.86555484	      3.31936659	     17.18860425	    -14.51682974	     21.16866258	    110.26606978	    113.16248694	     21.03092654	    -15.39521007	     29.06234571	    110.74702182	    106.07715294
      0.04000000	      9.47497669	     -2.26488989	      0.17089120	     -0.66214941	      0.69300777	     -0.62021137	     78.24371596	    -12.68638636	      4.25778888	     91.79296941	      1.60208955	      7.05732096	     -2.58703272	     -5.61970474	     80.64169736	    -19.52790313	      7.12604443	     93.66857872	      1.63482510	      8.05748873	      5.70215785	     -5.61970474	    -28.10703682	      0.74647377	      3.53698140	     18.78256737	    -14.73267347	     21.10595383	    109.99344236	    113.43933992	     22.87305256	    -15.41355836	     29.35898567	    110.32445124	    105.78400665
      0.05000000	      9.14186327	     -2.23998388	      0.12248387	     -0.66247316	      0.69303195	     -0.62011666	     78.55915893	    -12.64570941	      4.26634395	     91.67716929	      1.60006845	      7.06731850	     -2.56890401	     -5.63499613	     80.93355824	    -19.51955854	      7.09163623	     93.58040844	      1.63328624	      7.90655737	      5.54311009	     -5.63499613	    -28.36871618	      0.61772664	      3.61048272	     20.55336741	    -14.94497461	     21.17912166	    109.68060894	    113.33796123	     24.70260153	    -15.39334173	     29.49158168	    109.72027733	    105.89925129
      0.06000000	      8.78152281	     -2.24208917	      0.13022795	     -0.66278453	      0.69311453	     -0.62007795	     78.87240008	    -12.63774476	      4.24432404	     91.56029188	      1.59802856	      7.06562092	     -2.57313874	     -5.64801831	     81.25797865	    -19.48247029	      7.05608860	     93.44659369	      1.63095073	      7.81961818	      5.45817036	     -5.64801831	    -28.68891407	      0.54504363	      3.71198603	     22.35679184	    -15.20852429	     21.26836916	    109.36939364	    113.24738691	     26.60310393	    -15.29715152	     29.61268229	    109.17344090	    105.99307989
      0.07000000	      8.37800515	     -2.27455144	      0.11745332	     -0.66300998	      0.69307632	     -0.61999352	     79.23055085	    -12.58318095	      4.21357034	     91.44985473	      1.59610107	      7.07713725	     -2.60216762	     -5.65971812	     81.64420829	    -19.45056869	      7.08801535	     93.33042507	      1.62892321	      7.75167098	      5.39514182	     -5.65971812	    -29.01214867	      0.47780898	      3.82756380	     24.23777579	    -15.46637050	     21.34169812	    109.06053836	    113.15855562	     28.54130778	    -15.20510263	     29.74704616	    108.63688716	    106.06327090
      0.08000000	      7.98057135	     -2.31694174	      0.08977112	     -0.66310960	      0.69299182	     -0.61989842	     79.58816260	    -12.53316086	      4.15127257	     91.36751863	      1.59466403	      7.08937781	     -2.65489408	     -5.67739447	     82.03981096	    -19.45536298	      7.11833485	     93.24399151	      1.62741466	      7.65124443	      5.31256417	     -5.67739447	    -29.35740895	      0.42034895	      3.97640101	     26.19460620	    -15.76838142	     21.46738576	    108.67653280	    113.02790232	     30.61138136	    -15.11316135	     30.02448511	    107.95554005	    106.16857247
      0.09000000	      7.50143322	     -2.31720898	      0.07595052	     -0.66306653	      0.69280409	     -0.61993460	     80.04189295	    -12.52683259	      4.15970121	     91.28452568	      1.59321553	      7.12929028	     -2.65327770	     -5.68289113	     82.49074348	    -19.40410983	      7.13277098	     93.14550905	      1.62569582	      7.66003082	      5.29218807	     -5.68289113	    -29.72995352	      0.32315089	      4.01423276	     28.08801444	    -15.87257333	     21.25811864	    108.49021561	    112.96743717	     32.47668123	    -14.89949016	     29.82139738	    107.67929705	    106.17321108
      0.10000000	      7.18593696	     -2.26880138	      0.13733450	     -0.66306241	      0.69295192	     -0.62019334	     80.34022366	    -12.62803193	      4.19172630	     91.21880695	      1.59206852	      7.08837403	     -2.58112681	     -5.69678055	     82.73559768	    -19.27996945	      7.04935537	     93.04787173	      1.62399172	      7.54450505	      5.23353992	     -5.69678055	    -30.20849355	      0.22407199	      4.06493369	     30.30633321	    -16.30604637	     21.65659379	    107.75443856	    112.85291642	     34.79393907	    -14.79827692	     30.30539588	    106.61744659	    106.22374575
      0.11000000	      6.81000958	     -2.25447157	      0.20066715	     -0.66292538	      0.69292902	     -0.62052704	     80.68641242	    -12.70077846	      4.22733863	     91.15964944	      1.59103603	      7.10129956	     -2.53158188	     -5.71102671	     83.07278134	    -19.14485927	      7.02653369	     92.97026271	      1.62263719	      7.48393834	      5.15978123	     -5.71102671	    -30.73443005	      0.14931768	      4.11008408	     32.46553017	    -16.68795705	     21.77883661	    107.32867976	    112.73465152	     37.02842412	    -14.60571165	     30.55772164	    105.85335163	    106.28472760
      0.12000000	      6.39037110	     -2.28342592	      0.26342917	     -0.66261121	      0.69276611	     -0.62093296	     81.06419583	    -12.77678514	      4.20479815	     91.11675699	      1.59028741	      7.15809848	     -2.49293688	     -5.72569501	     83.48611832	    -19.01593408	      7.05541673	     92.92024230	      1.62176417	      7.42153196	      5.10223742	     -5.72569501	    -31.26052085	      0.13432018	      4.18087981	     34.68138361	    -17.10212069	     21.93184867	    106.93075037	    112.61011776	     39.30934448	    -14.37731840	     30.79973397	    105.05255790	    106.33473792
      0.13000000	      5.88949761	     -2.30199889	      0.34471871	     -0.66216722	      0.69253224	     -0.62130736	     81.51651301	    -12.85919867	      4.20149563	     91.07611460	      1.58957807	      7.23387133	     -2.45943857	     -5.73685388	     83.97069275	    -18.85623469	      7.08837041	     92.85208098	      1.62057453	      7.37876685	      5.06283379	     -5.73685388	    -31.77333402	      0.11342486	      4.21409694	     36.93745389	    -17.45527783	     22.04498203	    106.54730818	    112.50211298	     41.60097233	    -14.13838613	     30.95913669	    104.31010912	    106.34979589
      0.14000000	      5.36843476	     -2.29076612	      0.42469416	     -0.66158356	      0.69223417	     -0.62170765	     82.01489171	    -12.95345682	      4.23063909	     91.06526016	      1.58938862	      7.32237368	     -2.45241068	     -5.74777855	     84.46658708	    -18.69537516	      7.07865980	     92.80259300	      1.61971080	      7.33683876	      4.99861086	     -5.74777855	    -32.30845828	      0.07605282	      4.23948730	     39.27035842	    -17.84357660	     22.19883312	    106.13653726	    112.38795258	     43.97475294	    -13.93593328	     31.18381137	    103.50642149	    106.35305856
      0.15000000	      4.83873531	     -2.27144153	      0.48084626	     -0.66091867	      0.69188979	     -0.62214890	     82.53344720	    -13.01770762	      4.29076941	     91.06069645	      1.58930897	      7.42491845	     -2.50043678	     -5.76008613	     84.96253316	    -18.53523280	      7.07451557	     92.77066046	      1.61915347	      7.28030597	      4.90594076	     -5.76008613	    -32.87653377	      0.04048125	      4.28838066	     41.70651365	    -18.30956502	     22.44938960	    105.70915111	    112.25695849	     46.46477901	    -13.72163874	     31.52276861	    102.62249465	    106.35376360
      0.16000000	      4.30835191	     -2.27927869	      0.53612684	     -0.66006329	      0.69151324	     -0.62249740	     83.04650720	    -13.07402978	      4.32561840	     91.06658707	      1.58941178	      7.51005207	     -2.56221560	     -5.77310360	     85.48304846	    -18.42240779	      7.07658526	     92.76003655	      1.61896805	      7.21059444	      4.82515696	     -5.77310360	    -33.49863057	      0.01182441	      4.36523317	     44.20785157	    -18.78007086	     22.68992415	    105.31311126	    112.11527189	     49.01079880	    -13.50741080	     31.87755275	    101.76233642	    106.35052275
